<?xml version="1.0" encoding="UTF-8"?> <!-- Generator: Adobe Illustrator 23.0.2, SVG Export Plug-In . SVG Version: 6.00 Build 0) --> <svg xmlns="http://www.w3.org/2000/svg" xmlns:xlink="http://www.w3.org/1999/xlink" id="Layer_1" x="0px" y="0px" viewBox="0 0 438.5 190.4" style="enable-background:new 0 0 438.5 190.4;" xml:space="preserve"> <style type="text/css"> .st0{fill:#F05A28;} </style> <g id="XMLID_2_"> <rect id="XMLID_107_" y="0" class="st0" width="438.5" height="190.4"></rect> <g> <g> <defs> <path id="SVGID_1_" d="M104.8,62.2h5.5v5.5h-5.5v16.4H93.9V56.8h10.9V62.2z M126.6,56.8v5.5h-16.4v-5.5H126.6z M137.5,84.1v-5.5 H132V56.8h10.9v21.8h16.4V56.8h10.9v27.3H137.5z M175.6,84.1v-5.5h27.3v-5.5h-21.8v-5.5h-5.5v-5.5h5.5v-5.5h27.3v5.5h-21.8v5.5 h21.8v5.5h5.5v5.5h-5.5v5.5H175.6z M219.3,84.1v-5.5h27.3v-5.5h-21.8v-5.5h-5.5v-5.5h5.5v-5.5H252v5.5h-21.8v5.5H252v5.5h5.5 v5.5H252v5.5H219.3z M262.9,84.1V45.9h10.9v21.8h10.9v-5.5h5.5v-5.5H301v5.5h-5.5v5.5h-5.5v5.5h5.5v5.5h5.5v5.5h-10.9v-5.5h-5.5 v-5.5h-10.9v10.9H262.9z M311.9,89.5v-5.5h21.8v-5.5h-21.8v-5.5h-5.5V56.8h10.9v16.4h16.4V56.8h10.9v27.3h-5.5v5.5H311.9z M99,133.8v-5.1h-5.1v-15.3H99v-5.1h20.5V98h10.2v35.8H99z M104.1,128.7h15.3v-15.3h-15.3V128.7z M135.9,133.8v-5.1h10.2v-15.3 H141v-5.1h15.3v20.5h10.2v5.1H135.9z M146.1,103.1V98h10.2v5.1H146.1z M174.4,138.9v-5.1h20.5v-5.1h-20.5v-5.1h-5.1v-10.2h5.1 v-5.1h30.7v25.6H200v5.1H174.4z M179.5,123.6h15.3v-10.2h-15.3V123.6z M211.7,133.8v-5.1h10.2v-15.3h-5.1v-5.1h15.3v20.5h10.2 v5.1H211.7z M221.9,103.1V98h10.2v5.1H221.9z M250.8,133.8v-20.5h-10.2v-5.1h10.2V98H261v10.2h10.2v5.1H261v20.5H250.8z M277.4,133.8v-5.1h-5.1v-5.1h5.1v-5.1h20.5v-5.1h-20.5v-5.1H303v5.1h5.1v20.5H277.4z M282.6,128.7h15.3v-5.1h-15.3V128.7z M313.9,133.8v-5.1h10.2v-25.6h-5.1V98h15.3v30.7h10.2v5.1H313.9z"></path> </defs> <use xlink:href="#SVGID_1_" style="overflow:visible;fill:#FFFFFF;"></use> <clipPath id="SVGID_2_"> <use xlink:href="#SVGID_1_" style="overflow:visible;"></use> </clipPath> </g> </g> </g> </svg> 